<?xml version="1.0" encoding="UTF-8"?>
<svg xmlns="http://www.w3.org/2000/svg" viewBox="0 0 148.37 134.50">
  <defs>
    <style>
      .symbol-f { fill: #1A1A1A; fill-rule: evenodd; }
      .symbol-l { fill: #00AEEF; fill-rule: evenodd; }
      .text-main { fill: #1A1A1A; }
      .text-lab { fill: #00AEEF; }
    </style>
  </defs>
  <g>
    <path d="M69.25,19.39l-.66.66-49.73,49.73c-10.87,10.59-7.95,30.1,1.02,39.07l.02-.02,48.65,48.65c11.41,11.68,29.25,10.89,40.11.02l-33.92-33.92,32.7-32.7-20.04-20.04-32.7,32.7-14.76-14.76L108.68,20.04c-10.05-9.78-29.38-10.16-39.43-.66Z" transform="translate(24.183999999999997,0) scale(0.563761)"
      class="symbol-f"/>
    <path d="M88.63,40.09l49.11,49.11-30.37,30.37,20.04,20.04,30.37-30.37c9.78-9.51,12.99-26.82,1.31-38.78l-50.42-50.42-20.04,20.04Z" transform="translate(24.183999999999997,0) scale(0.563761)"
      class="symbol-l"/>
    <path d="M107.74,20.16c-.24.24-.3.61-.15.9-.29-.14-.66-.09-.9.15-.24.24-.3.61-.15.9-.29-.14-.66-.09-.9.15-.24.24-.3.61-.15.9-.29-.14-.66-.09-.9.15-.24.24-.3.61-.15.9-.29-.14-.66-.09-.9.15-.24.24-.3.61-.15.9-.29-.14-.66-.09-.9.15-.24.24-.3.61-.15.9-.29-.14-.66-.09-.9.15s-.3.61-.15.9c-.29-.14-.66-.09-.9.15-.24.24-.3.61-.15.9-.29-.14-.66-.09-.9.15-.22.22-.29.55-.19.82-.28-.1-.6-.04-.82.19-.24.24-.3.61-.15.9-.29-.14-.66-.09-.9.15-.24.24-.3.61-.15.9-.29-.14-.66-.09-.9.15-.24.24-.3.61-.15.9-.29-.14-.66-.09-.9.15-.24.24-.3.61-.15.9-.29-.14-.66-.09-.9.15-.24.24-.3.61-.15.9-.29-.14-.66-.09-.9.15-.24.24-.3.61-.15.9-.29-.14-.66-.09-.9.15-.24.24-.3.61-.15.9-.29-.14-.66-.09-.9.15s-.3.61-.15.9c-.29-.14-.66-.09-.9.15s-.3.61-.15.9c-.29-.14-.66-.09-.9.15-.31.31-.31.81,0,1.12s.81.31,1.12,0c.24-.24.3-.61.15-.9.29.14.66.09.9-.15.24-.24.3-.61.15-.9.29.14.66.09.9-.15.24-.24.3-.61.15-.9.29.14.66.09.9-.15s.3-.61.15-.9c.29.14.66.09.9-.15.24-.24.3-.61.15-.9.29.14.66.09.9-.15s.3-.61.15-.9c.29.14.66.09.9-.15s.3-.61.15-.9c.29.14.66.09.9-.15.24-.24.3-.61.15-.9.29.14.66.09.9-.15s.3-.61.15-.9c.29.14.66.09.9-.15.22-.22.29-.55.19-.82.28.1.6.04.82-.19.24-.24.3-.61.15-.9.29.14.66.09.9-.15s.3-.61.15-.9c.29.14.66.09.9-.15.24-.24.3-.61.15-.9.29.14.66.09.9-.15.24-.24.3-.61.15-.9.29.14.66.09.9-.15.24-.24.3-.61.15-.9.29.14.66.09.9-.15.24-.24.3-.61.15-.9.29.14.66.09.9-.15.24-.24.3-.61.15-.9.29.14.66.09.9-.15.24-.24.3-.61.15-.9.29.14.66.09.9-.15.31-.31.31-.81,0-1.12-.31-.31-.81-.31-1.12,0ZM108.91,21.33c-.25.25-.25.65,0,.9.25.25.65.25.9,0,.25-.25.25-.65,0-.9-.25-.25-.65-.25-.9,0ZM107.85,22.39c-.25.25-.25.65,0,.9.25.25.65.25.9,0,.25-.25.25-.65,0-.9-.25-.25-.65-.25-.9,0ZM110.03,22.5c-.2.2-.2.52,0,.72s.52.2.72,0,.2-.52,0-.72-.52-.2-.72,0ZM106.79,23.45c-.25.25-.25.65,0,.9.25.25.65.25.9,0s.25-.65,0-.9c-.25-.25-.65-.25-.9,0ZM109,23.54c-.2.2-.2.52,0,.72s.52.2.72,0,.2-.52,0-.72c-.2-.2-.52-.2-.72,0ZM111.16,23.63c-.16.16-.16.42,0,.57.16.16.42.16.57,0,.16-.16.16-.42,0-.57s-.42-.16-.57,0ZM105.74,24.51c-.25.25-.25.65,0,.9.25.25.65.25.9,0,.25-.25.25-.65,0-.9-.25-.25-.65-.25-.9,0ZM107.94,24.59c-.2.2-.2.52,0,.72s.52.2.72,0c.2-.2.2-.52,0-.72-.2-.2-.52-.2-.72,0ZM110.1,24.69c-.16.16-.16.42,0,.57.16.16.42.16.57,0,.16-.16.16-.42,0-.57-.16-.16-.42-.16-.57,0ZM112.28,24.75c-.13.13-.13.33,0,.46.13.13.33.13.46,0s.13-.33,0-.46-.33-.13-.46,0ZM104.68,25.56c-.25.25-.25.65,0,.9.25.25.65.25.9,0,.25-.25.25-.65,0-.9-.25-.25-.65-.25-.9,0ZM106.88,25.65c-.2.2-.2.52,0,.72s.52.2.72,0,.2-.52,0-.72-.52-.2-.72,0ZM109.07,25.72c-.16.16-.16.42,0,.57.16.16.42.16.57,0,.16-.16.16-.42,0-.57-.16-.16-.42-.16-.57,0ZM111.22,25.8c-.13.13-.13.33,0,.46.13.13.33.13.46,0,.13-.13.13-.33,0-.46-.13-.13-.33-.13-.46,0ZM113.38,25.85c-.1.1-.1.27,0,.37.1.1.27.1.37,0,.1-.1.1-.27,0-.37s-.27-.1-.37,0ZM103.62,26.62c-.25.25-.25.65,0,.9.25.25.65.25.9,0,.25-.25.25-.65,0-.9-.25-.25-.65-.25-.9,0ZM105.82,26.71c-.2.2-.2.52,0,.72s.52.2.72,0,.2-.52,0-.72-.52-.2-.72,0ZM108.01,26.78c-.16.16-.16.42,0,.57.16.16.42.16.57,0,.16-.16.16-.42,0-.57-.16-.16-.42-.16-.57,0ZM110.16,26.86c-.13.13-.13.33,0,.46.13.13.33.13.46,0,.13-.13.13-.33,0-.46-.13-.13-.33-.13-.46,0ZM112.32,26.91c-.1.1-.1.27,0,.37.1.1.27.1.37,0,.1-.1.1-.27,0-.37-.1-.1-.27-.1-.37,0ZM114.48,26.94c-.08.08-.08.21,0,.29.08.08.21.08.29,0s.08-.21,0-.29c-.08-.08-.21-.08-.29,0ZM102.56,27.68c-.25.25-.25.65,0,.9.25.25.65.25.9,0,.25-.25.25-.65,0-.9-.25-.25-.65-.25-.9,0ZM104.77,27.77c-.2.2-.2.52,0,.72s.52.2.72,0,.2-.52,0-.72-.52-.2-.72,0ZM106.95,27.84c-.16.16-.16.42,0,.57.16.16.42.16.57,0,.16-.16.16-.42,0-.57-.16-.16-.42-.16-.57,0ZM109.13,27.9c-.13.13-.13.33,0,.46.13.13.33.13.46,0,.13-.13.13-.33,0-.46-.13-.13-.33-.13-.46,0ZM111.27,27.97c-.1.1-.1.27,0,.37.1.1.27.1.37,0,.1-.1.1-.27,0-.37-.1-.1-.27-.1-.37,0ZM113.42,28c-.08.08-.08.21,0,.29.08.08.21.08.29,0,.08-.08.08-.21,0-.29-.08-.08-.21-.08-.29,0ZM115.56,28.03c-.06.06-.06.17,0,.23.06.06.17.06.23,0,.06-.06.06-.17,0-.23-.06-.06-.17-.06-.23,0ZM101.5,28.74c-.25.25-.25.65,0,.9.25.25.65.25.9,0,.25-.25.25-.65,0-.9-.25-.25-.65-.25-.9,0ZM103.71,28.83c-.2.2-.2.52,0,.72.2.2.52.2.72,0,.2-.2.2-.52,0-.72-.2-.2-.52-.2-.72,0ZM105.9,28.9c-.16.16-.16.42,0,.57.16.16.42.16.57,0,.16-.16.16-.42,0-.57-.16-.16-.42-.16-.57,0ZM108.07,28.95c-.13.13-.13.33,0,.46.13.13.33.13.46,0,.13-.13.13-.33,0-.46-.13-.13-.33-.13-.46,0ZM110.21,29.02c-.1.1-.1.27,0,.37.1.1.27.1.37,0,.1-.1.1-.27,0-.37-.1-.1-.27-.1-.37,0ZM112.36,29.06c-.08.08-.08.21,0,.29.08.08.21.08.29,0,.08-.08.08-.21,0-.29-.08-.08-.21-.08-.29,0ZM114.5,29.09c-.06.06-.06.17,0,.23.06.06.17.06.23,0,.06-.06.06-.17,0-.23-.06-.06-.17-.06-.23,0ZM100.45,29.79c-.25.25-.25.65,0,.9.25.25.65.25.9,0,.25-.25.25-.65,0-.9s-.65-.25-.9,0ZM102.65,29.88c-.2.2-.2.52,0,.72s.52.2.72,0,.2-.52,0-.72-.52-.2-.72,0ZM104.84,29.95c-.16.16-.16.42,0,.57s.42.16.57,0c.16-.16.16-.42,0-.57-.16-.16-.42-.16-.57,0ZM107.01,30.01c-.13.13-.13.33,0,.46.13.13.33.13.46,0,.13-.13.13-.33,0-.46-.13-.13-.33-.13-.46,0ZM109.17,30.06c-.1.1-.1.27,0,.37.1.1.27.1.37,0s.1-.27,0-.37c-.1-.1-.27-.1-.37,0ZM111.3,30.12c-.08.08-.08.21,0,.29.08.08.21.08.29,0,.08-.08.08-.21,0-.29-.08-.08-.21-.08-.29,0ZM113.45,30.15c-.06.06-.06.17,0,.23.06.06.17.06.23,0,.06-.06.06-.17,0-.23-.06-.06-.17-.06-.23,0ZM99.39,30.85c-.25.25-.25.65,0,.9.25.25.65.25.9,0,.25-.25.25-.65,0-.9-.25-.25-.65-.25-.9,0ZM101.59,30.94c-.2.2-.2.52,0,.72.2.2.52.2.72,0,.2-.2.2-.52,0-.72-.2-.2-.52-.2-.72,0ZM103.78,31.01c-.16.16-.16.42,0,.57.16.16.42.16.57,0,.16-.16.16-.42,0-.57-.16-.16-.42-.16-.57,0ZM105.95,31.07c-.13.13-.13.33,0,.46.13.13.33.13.46,0,.13-.13.13-.33,0-.46-.13-.13-.33-.13-.46,0ZM108.11,31.12c-.1.1-.1.27,0,.37s.27.1.37,0c.1-.1.1-.27,0-.37-.1-.1-.27-.1-.37,0ZM110.24,31.17c-.08.08-.08.21,0,.29.08.08.21.08.29,0,.08-.08.08-.21,0-.29s-.21-.08-.29,0ZM112.39,31.2c-.06.06-.06.17,0,.23.06.06.17.06.23,0,.06-.06.06-.17,0-.23-.06-.06-.17-.06-.23,0ZM98.38,31.86c-.25.25-.25.65,0,.9.25.25.65.25.9,0,.25-.25.25-.65,0-.9-.25-.25-.65-.25-.9,0ZM100.54,32c-.2.2-.2.52,0,.72s.52.2.72,0,.2-.52,0-.72-.52-.2-.72,0ZM102.72,32.07c-.16.16-.16.42,0,.57.16.16.42.16.57,0,.16-.16.16-.42,0-.57-.16-.16-.42-.16-.57,0ZM104.9,32.13c-.13.13-.13.33,0,.46.13.13.33.13.46,0,.13-.13.13-.33,0-.46-.13-.13-.33-.13-.46,0ZM107.06,32.17c-.1.1-.1.27,0,.37.1.1.27.1.37,0,.1-.1.1-.27,0-.37-.1-.1-.27-.1-.37,0ZM109.21,32.21c-.08.08-.08.21,0,.29.08.08.21.08.29,0,.08-.08.08-.21,0-.29-.08-.08-.21-.08-.29,0ZM111.33,32.26c-.06.06-.06.17,0,.23.06.06.17.06.23,0,.06-.06.06-.17,0-.23-.06-.06-.17-.06-.23,0ZM97.32,32.92c-.25.25-.25.65,0,.9s.65.25.9,0c.25-.25.25-.65,0-.9-.25-.25-.65-.25-.9,0ZM99.48,33.06c-.2.2-.2.52,0,.72s.52.2.72,0,.2-.52,0-.72-.52-.2-.72,0ZM101.67,33.13c-.16.16-.16.42,0,.57.16.16.42.16.57,0s.16-.42,0-.57-.42-.16-.57,0ZM103.84,33.19c-.13.13-.13.33,0,.46s.33.13.46,0,.13-.33,0-.46-.33-.13-.46,0ZM106,33.23c-.1.1-.1.27,0,.37.1.1.27.1.37,0s.1-.27,0-.37c-.1-.1-.27-.1-.37,0ZM108.15,33.27c-.08.08-.08.21,0,.29.08.08.21.08.29,0,.08-.08.08-.21,0-.29s-.21-.08-.29,0ZM110.27,33.32c-.06.06-.06.17,0,.23.06.06.17.06.23,0,.06-.06.06-.17,0-.23-.06-.06-.17-.06-.23,0ZM96.26,33.98c-.25.25-.25.65,0,.9s.65.25.9,0,.25-.65,0-.9-.65-.25-.9,0ZM98.47,34.07c-.2.2-.2.52,0,.72s.52.2.72,0,.2-.52,0-.72-.52-.2-.72,0ZM100.61,34.19c-.16.16-.16.42,0,.57s.42.16.57,0c.16-.16.16-.42,0-.57-.16-.16-.42-.16-.57,0ZM102.78,34.24c-.13.13-.13.33,0,.46.13.13.33.13.46,0,.13-.13.13-.33,0-.46s-.33-.13-.46,0ZM104.94,34.29c-.1.1-.1.27,0,.37.1.1.27.1.37,0s.1-.27,0-.37-.27-.1-.37,0ZM107.09,34.33c-.08.08-.08.21,0,.29.08.08.21.08.29,0s.08-.21,0-.29c-.08-.08-.21-.08-.29,0ZM109.24,34.35c-.06.06-.06.17,0,.23.06.06.17.06.23,0s.06-.17,0-.23c-.06-.06-.17-.06-.23,0ZM95.21,35.03c-.25.25-.25.65,0,.9s.65.25.9,0c.25-.25.25-.65,0-.9s-.65-.25-.9,0ZM97.41,35.12c-.2.2-.2.52,0,.72s.52.2.72,0,.2-.52,0-.72-.52-.2-.72,0ZM99.55,35.24c-.16.16-.16.42,0,.57.16.16.42.16.57,0s.16-.42,0-.57c-.16-.16-.42-.16-.57,0ZM101.72,35.3c-.13.13-.13.33,0,.46s.33.13.46,0,.13-.33,0-.46-.33-.13-.46,0ZM103.88,35.35c-.1.1-.1.27,0,.37.1.1.27.1.37,0s.1-.27,0-.37-.27-.1-.37,0ZM106.04,35.38c-.08.08-.08.21,0,.29.08.08.21.08.29,0s.08-.21,0-.29c-.08-.08-.21-.08-.29,0ZM108.18,35.41c-.06.06-.06.17,0,.23.06.06.17.06.23,0s.06-.17,0-.23-.17-.06-.23,0ZM94.15,36.09c-.25.25-.25.65,0,.9.25.25.65.25.9,0,.25-.25.25-.65,0-.9-.25-.25-.65-.25-.9,0ZM96.35,36.18c-.2.2-.2.52,0,.72s.52.2.72,0,.2-.52,0-.72-.52-.2-.72,0ZM98.54,36.25c-.16.16-.16.42,0,.57.16.16.42.16.57,0s.16-.42,0-.57c-.16-.16-.42-.16-.57,0ZM100.67,36.36c-.13.13-.13.33,0,.46s.33.13.46,0,.13-.33,0-.46c-.13-.13-.33-.13-.46,0ZM102.83,36.4c-.1.1-.1.27,0,.37.1.1.27.1.37,0s.1-.27,0-.37-.27-.1-.37,0ZM104.98,36.44c-.08.08-.08.21,0,.29.08.08.21.08.29,0,.08-.08.08-.21,0-.29-.08-.08-.21-.08-.29,0ZM107.12,36.47c-.06.06-.06.17,0,.23.06.06.17.06.23,0s.06-.17,0-.23c-.06-.06-.17-.06-.23,0ZM93.09,37.15c-.25.25-.25.65,0,.9s.65.25.9,0c.25-.25.25-.65,0-.9-.25-.25-.65-.25-.9,0ZM95.3,37.24c-.2.2-.2.52,0,.72s.52.2.72,0,.2-.52,0-.72-.52-.2-.72,0ZM97.48,37.31c-.16.16-.16.42,0,.57s.42.16.57,0c.16-.16.16-.42,0-.57-.16-.16-.42-.16-.57,0ZM99.61,37.42c-.13.13-.13.33,0,.46s.33.13.46,0,.13-.33,0-.46-.33-.13-.46,0ZM101.77,37.46c-.1.1-.1.27,0,.37s.27.1.37,0c.1-.1.1-.27,0-.37s-.27-.1-.37,0ZM103.92,37.5c-.08.08-.08.21,0,.29.08.08.21.08.29,0s.08-.21,0-.29c-.08-.08-.21-.08-.29,0ZM106.07,37.53c-.06.06-.06.17,0,.23.06.06.17.06.23,0,.06-.06.06-.17,0-.23s-.17-.06-.23,0ZM92.03,38.21c-.25.25-.25.65,0,.9s.65.25.9,0c.25-.25.25-.65,0-.9-.25-.25-.65-.25-.9,0ZM94.24,38.3c-.2.2-.2.52,0,.72.2.2.52.2.72,0,.2-.2.2-.52,0-.72-.2-.2-.52-.2-.72,0ZM96.42,38.37c-.16.16-.16.42,0,.57.16.16.42.16.57,0,.16-.16.16-.42,0-.57-.16-.16-.42-.16-.57,0ZM98.6,38.43c-.13.13-.13.33,0,.46s.33.13.46,0,.13-.33,0-.46-.33-.13-.46,0ZM100.71,38.52c-.1.1-.1.27,0,.37s.27.1.37,0,.1-.27,0-.37c-.1-.1-.27-.1-.37,0ZM102.86,38.56c-.08.08-.08.21,0,.29.08.08.21.08.29,0,.08-.08.08-.21,0-.29-.08-.08-.21-.08-.29,0ZM105.01,38.59c-.06.06-.06.17,0,.23.06.06.17.06.23,0,.06-.06.06-.17,0-.23-.06-.06-.17-.06-.23,0ZM90.98,39.27c-.25.25-.25.65,0,.9s.65.25.9,0c.25-.25.25-.65,0-.9-.25-.25-.65-.25-.9,0ZM93.18,39.36c-.2.2-.2.52,0,.72s.52.2.72,0,.2-.52,0-.72-.52-.2-.72,0ZM95.37,39.43c-.16.16-.16.42,0,.57.16.16.42.16.57,0s.16-.42,0-.57-.42-.16-.57,0ZM97.54,39.48c-.13.13-.13.33,0,.46s.33.13.46,0c.13-.13.13-.33,0-.46-.13-.13-.33-.13-.46,0ZM99.65,39.58c-.1.1-.1.27,0,.37.1.1.27.1.37,0,.1-.1.1-.27,0-.37-.1-.1-.27-.1-.37,0ZM101.81,39.61c-.08.08-.08.21,0,.29s.21.08.29,0c.08-.08.08-.21,0-.29s-.21-.08-.29,0ZM103.95,39.64c-.06.06-.06.17,0,.23.06.06.17.06.23,0,.06-.06.06-.17,0-.23-.06-.06-.17-.06-.23,0ZM89.92,40.32c-.25.25-.25.65,0,.9.25.25.65.25.9,0s.25-.65,0-.9-.65-.25-.9,0ZM92.12,40.41c-.2.2-.2.52,0,.72s.52.2.72,0,.2-.52,0-.72-.52-.2-.72,0ZM94.31,40.48c-.16.16-.16.42,0,.57.16.16.42.16.57,0s.16-.42,0-.57-.42-.16-.57,0ZM96.48,40.54c-.13.13-.13.33,0,.46s.33.13.46,0,.13-.33,0-.46-.33-.13-.46,0ZM98.64,40.59c-.1.1-.1.27,0,.37.1.1.27.1.37,0,.1-.1.1-.27,0-.37-.1-.1-.27-.1-.37,0ZM100.75,40.67c-.08.08-.08.21,0,.29s.21.08.29,0c.08-.08.08-.21,0-.29-.08-.08-.21-.08-.29,0ZM102.89,40.7c-.06.06-.06.17,0,.23.06.06.17.06.23,0,.06-.06.06-.17,0-.23-.06-.06-.17-.06-.23,0ZM91.06,41.47c-.2.2-.2.52,0,.72s.52.2.72,0,.2-.52,0-.72-.52-.2-.72,0ZM93.25,41.54c-.16.16-.16.42,0,.57s.42.16.57,0c.16-.16.16-.42,0-.57-.16-.16-.42-.16-.57,0ZM95.42,41.6c-.13.13-.13.33,0,.46s.33.13.46,0,.13-.33,0-.46-.33-.13-.46,0ZM97.59,41.65c-.1.1-.1.27,0,.37.1.1.27.1.37,0s.1-.27,0-.37c-.1-.1-.27-.1-.37,0ZM99.69,41.73c-.08.08-.08.21,0,.29.08.08.21.08.29,0s.08-.21,0-.29-.21-.08-.29,0ZM101.84,41.76c-.06.06-.06.17,0,.23.06.06.17.06.23,0s.06-.17,0-.23c-.06-.06-.17-.06-.23,0ZM92.19,42.6c-.16.16-.16.42,0,.57.16.16.42.16.57,0,.16-.16.16-.42,0-.57s-.42-.16-.57,0ZM94.37,42.66c-.13.13-.13.33,0,.46s.33.13.46,0,.13-.33,0-.46c-.13-.13-.33-.13-.46,0ZM96.53,42.7c-.1.1-.1.27,0,.37s.27.1.37,0c.1-.1.1-.27,0-.37-.1-.1-.27-.1-.37,0ZM98.68,42.74c-.08.08-.08.21,0,.29.08.08.21.08.29,0,.08-.08.08-.21,0-.29s-.21-.08-.29,0ZM100.78,42.82c-.06.06-.06.17,0,.23.06.06.17.06.23,0,.06-.06.06-.17,0-.23-.06-.06-.17-.06-.23,0ZM93.31,43.71c-.13.13-.13.33,0,.46s.33.13.46,0c.13-.13.13-.33,0-.46s-.33-.13-.46,0ZM95.47,43.76c-.1.1-.1.27,0,.37.1.1.27.1.37,0s.1-.27,0-.37c-.1-.1-.27-.1-.37,0ZM97.62,43.8c-.08.08-.08.21,0,.29s.21.08.29,0c.08-.08.08-.21,0-.29-.08-.08-.21-.08-.29,0ZM99.72,43.87c-.06.06-.06.17,0,.23.06.06.17.06.23,0s.06-.17,0-.23c-.06-.06-.17-.06-.23,0ZM94.41,44.82c-.1.1-.1.27,0,.37s.27.1.37,0,.1-.27,0-.37c-.1-.1-.27-.1-.37,0ZM96.56,44.85c-.08.08-.08.21,0,.29.08.08.21.08.29,0,.08-.08.08-.21,0-.29s-.21-.08-.29,0ZM98.71,44.88c-.06.06-.06.17,0,.23.06.06.17.06.23,0s.06-.17,0-.23c-.06-.06-.17-.06-.23,0ZM95.51,45.91c-.08.08-.08.21,0,.29.08.08.21.08.29,0s.08-.21,0-.29c-.08-.08-.21-.08-.29,0ZM97.65,45.94c-.06.06-.06.17,0,.23.06.06.17.06.23,0s.06-.17,0-.23c-.06-.06-.17-.06-.23,0ZM96.59,47c-.06.06-.06.17,0,.23s.17.06.23,0,.06-.17,0-.23c-.06-.06-.17-.06-.23,0Z" transform="translate(24.183999999999997,0) scale(0.563761)"
      class="symbol-f"/>
    <path d="M71 0 197 715H655L628 563H345L319 415H548L521 265H293L246 0Z" class="text-main"
      transform="translate(5.0,129.50) scale(0.032000,-0.032000)"/>
    <path d="M82 154 181 714H355L262 186Q253 137 297 137Q314 137 332 143L306 1Q274 -12 223 -12Q144 -12 105.5 30.5Q67 73 82 154Z" class="text-main"
      transform="translate(22.66,129.50) scale(0.032000,-0.032000)"/>
    <path d="M385 526Q500 526 545.0 464.5Q590 403 590 333Q590 307 585 279Q579 241 571 220H246Q246 219 246 217Q246 174 279.5 153.0Q313 132 368 132Q412 132 458.5 144.5Q505 157 531 174L504 22Q432 -12 320 -12Q190 -12 129.5 50.0Q69 112 69 197Q69 225 75 257Q95 372 183.0 449.0Q271 526 385 526ZM359 388Q324 388 298.0 367.5Q272 347 260 313H431Q431 316 431 320Q431 349 413.5 368.5Q396 388 359 388Z" class="text-main"
      transform="translate(33.26,129.50) scale(0.032000,-0.032000)"/>
    <path d="M546 0H359L298 143L186 0H-1L221 261L93 514H279L339 380L447 514H633L416 261Z" class="text-main"
      transform="translate(51.34,129.50) scale(0.032000,-0.032000)"/>
    <path d="M401 526Q524 526 589.0 450.0Q654 374 633 257Q613 140 521.0 64.0Q429 -12 306 -12Q184 -12 119.0 64.0Q54 140 74 257Q95 374 187.0 450.0Q279 526 401 526ZM444 340Q419 372 374.0 372.0Q329 372 294.0 340.5Q259 309 249.0 257.0Q239 205 263.5 173.5Q288 142 333.0 142.0Q378 142 413.5 173.5Q449 205 459 257Q469 308 444 340Z" class="text-main"
      transform="translate(68.78,129.50) scale(0.032000,-0.032000)"/>
    <path d="M71 0 198 715H374L275 156H544L516 0Z" class="text-lab"
      transform="translate(88.49,129.50) scale(0.032000,-0.032000)"/>
    <path d="M150 480Q235 526 343 526Q449 526 502.0 479.0Q555 432 555 361Q555 340 551 316L496 0H333L344 61Q283 -12 192 -12Q119 -12 83.0 24.5Q47 61 47 106Q47 119 49 132Q61 197 114.5 238.0Q168 279 255 292L382 309L384 317Q385 322 385 327Q385 349 364.5 363.5Q344 378 303 378Q208 378 122 324ZM259 113Q294 113 326.0 139.0Q358 165 365 204L366 214L284 203Q221 195 215 155Q214 150 214 146Q214 133 225.0 123.0Q236 113 259 113Z" class="text-lab"
      transform="translate(105.45,129.50) scale(0.032000,-0.032000)"/>
    <path d="M229 61 218 0H59L186 714H358L313 461Q338 490 379.5 508.0Q421 526 466 526Q562 526 618.0 451.0Q674 376 653 257Q631 138 548.5 63.0Q466 -12 367 -12Q319 -12 281.5 8.0Q244 28 229 61ZM355 138Q399 138 434.0 170.5Q469 203 479.0 255.0Q489 307 464.5 339.5Q440 372 396 372Q350 372 315.0 340.0Q280 308 270 255Q261 203 285.5 170.5Q310 138 355 138Z" class="text-lab"
      transform="translate(123.02,129.50) scale(0.032000,-0.032000)"/>
  </g>
</svg>