<?xml version="1.0" encoding="UTF-8"?>
<svg xmlns="http://www.w3.org/2000/svg" viewBox="0 0 177.38 177.38">
  <defs>
    <style>
      .sym-f { fill: #1A1A1A; fill-rule: evenodd; }
      .sym-l { fill: #00AEEF; fill-rule: evenodd; }
    </style>
  </defs>
  <path d="M88.63,40.09l9.55,9.55,39.56,39.56-30.37,30.37,20.04,20.04,30.37-30.37c9.78-9.51,12.99-26.82,1.31-38.78l-50.42-50.42-20.04,20.04Z" class="sym-l"/>
  <path d="M69.25,19.39l-.65.65-49.74,49.73c-10.87,10.59-7.95,30.1,1.02,39.07l.02-.02,48.65,48.65c11.41,11.68,29.25,10.89,40.11.02l-33.92-33.92,32.7-32.7-20.04-20.04-32.7,32.7-14.76-14.76,48.69-48.7,9.99,9.99,20.04-20.04-10.15-10.15c-10.1-9.62-29.27-9.95-39.27-.5Z" class="sym-f"/>
  <path d="M88.61,40.14l2.39,2.39c.41-.3.68-.8.67-1.36,0-.93-.77-1.69-1.71-1.71-.56,0-1.05.26-1.35.68Z" class="sym-l"/>
  <path d="M90.81,42.34l2.51,2.51c.43-.32.7-.84.7-1.42,0-.98-.81-1.78-1.79-1.79-.58,0-1.09.27-1.41.7Z" class="sym-l"/>
  <path d="M93.01,44.54l2.64,2.64c.45-.34.73-.87.72-1.48,0-1.03-.85-1.87-1.88-1.88-.6,0-1.14.28-1.48.72Z" class="sym-l"/>
  <path d="M95.2,46.73l2.77,2.77c.46-.35.76-.91.75-1.55,0-1.08-.89-1.96-1.98-1.98-.63,0-1.19.29-1.54.75Z" class="sym-l"/>
  <path d="M97.39,48.93l2.91,2.91c.48-.37.78-.96.77-1.62-.01-1.13-.94-2.06-2.07-2.07-.66,0-1.24.3-1.61.78Z" class="sym-l"/>
  <path d="M99.58,51.12l1.6,1.6,1.69-1.69c-.4-.43-.97-.71-1.6-.72-.68,0-1.29.31-1.69.81Z" class="sym-l"/>
  <path d="M90.49,38.93c.01.94.78,1.7,1.71,1.71.94.01,1.69-.74,1.68-1.68,0-.93-.77-1.69-1.71-1.71-.93,0-1.68.74-1.68,1.68" class="sym-l"/>
  <path d="M92.67,41.19c.01.98.81,1.78,1.79,1.79.98.01,1.77-.78,1.76-1.76,0-.98-.81-1.78-1.79-1.79-.98,0-1.77.78-1.76,1.76" class="sym-l"/>
  <path d="M94.84,43.46c.01,1.03.86,1.87,1.88,1.88,1.03.01,1.86-.82,1.85-1.85,0-1.03-.85-1.87-1.88-1.88-1.03,0-1.86.82-1.85,1.85" class="sym-l"/>
  <path d="M97.01,45.72c.02,1.08.9,1.97,1.98,1.98,1.08.02,1.96-.86,1.94-1.94,0-1.08-.89-1.96-1.98-1.98-1.08,0-1.95.86-1.94,1.94" class="sym-l"/>
  <path d="M99.18,47.98c.02,1.14.94,2.06,2.07,2.07,1.14.02,2.05-.9,2.04-2.04-.01-1.13-.94-2.06-2.07-2.07-1.13-.01-2.05.91-2.04,2.04" class="sym-l"/>
  <path d="M101.34,50.24c0,.63.28,1.2.72,1.6l3.02-3.02c-.4-.43-.97-.71-1.6-.72-1.19-.01-2.15.95-2.14,2.14Z" class="sym-l"/>
  <path d="M92.7,36.73c.01.94.78,1.7,1.71,1.71.94.01,1.69-.74,1.68-1.68,0-.93-.77-1.69-1.71-1.71-.93,0-1.68.74-1.68,1.68" class="sym-l"/>
  <path d="M94.88,38.99c.01.98.81,1.78,1.79,1.79.98.01,1.77-.78,1.76-1.76,0-.98-.81-1.78-1.79-1.79-.98,0-1.77.78-1.76,1.76" class="sym-l"/>
  <path d="M97.05,41.25c.01,1.03.86,1.87,1.88,1.88,1.03.01,1.86-.82,1.85-1.85,0-1.03-.85-1.87-1.88-1.88-1.03,0-1.86.82-1.85,1.85" class="sym-l"/>
  <path d="M99.22,43.51c.02,1.08.9,1.97,1.98,1.98,1.08.02,1.96-.86,1.94-1.94,0-1.08-.89-1.96-1.98-1.98-1.08,0-1.95.86-1.94,1.94" class="sym-l"/>
  <path d="M101.38,45.77c.02,1.14.94,2.06,2.07,2.07,1.14.02,2.05-.9,2.04-2.04-.01-1.13-.94-2.06-2.07-2.07-1.13-.01-2.05.91-2.04,2.04" class="sym-l"/>
  <path d="M103.54,48.03c0,.63.28,1.2.72,1.6l3.02-3.02c-.4-.43-.97-.71-1.6-.72-1.19-.01-2.15.95-2.14,2.14Z" class="sym-l"/>
  <path d="M94.91,34.52c.01.94.78,1.7,1.71,1.71.94.01,1.69-.74,1.68-1.68,0-.93-.77-1.69-1.71-1.71-.93,0-1.68.74-1.68,1.68" class="sym-l"/>
  <path d="M97.08,36.78c.01.98.81,1.78,1.79,1.79.98.01,1.77-.78,1.76-1.76,0-.98-.81-1.78-1.79-1.79-.98,0-1.77.78-1.76,1.76" class="sym-l"/>
  <path d="M99.26,39.04c.01,1.03.86,1.87,1.88,1.88,1.03.01,1.86-.82,1.85-1.85,0-1.03-.85-1.87-1.88-1.88-1.03,0-1.86.82-1.85,1.85" class="sym-l"/>
  <path d="M101.43,41.3c.02,1.08.9,1.97,1.98,1.98,1.08.02,1.96-.86,1.94-1.94,0-1.08-.89-1.96-1.98-1.98-1.08,0-1.95.86-1.94,1.94" class="sym-l"/>
  <path d="M103.59,43.57c.02,1.14.94,2.06,2.07,2.07,1.14.02,2.05-.9,2.04-2.04-.01-1.13-.94-2.06-2.07-2.07-1.13-.01-2.05.91-2.04,2.04" class="sym-l"/>
  <path d="M105.75,45.83c0,.63.28,1.2.72,1.6l3.02-3.02c-.4-.43-.97-.71-1.6-.72-1.19-.01-2.15.95-2.14,2.14Z" class="sym-l"/>
  <path d="M97.11,32.31c.01.94.78,1.7,1.71,1.71.94.01,1.69-.74,1.68-1.68,0-.93-.77-1.69-1.71-1.71-.93,0-1.68.74-1.68,1.68" class="sym-l"/>
  <path d="M99.29,34.57c.01.98.81,1.78,1.79,1.79.98.01,1.77-.78,1.76-1.76,0-.98-.81-1.78-1.79-1.79-.98,0-1.77.78-1.76,1.76" class="sym-l"/>
  <path d="M101.46,36.84c.01,1.03.86,1.87,1.88,1.88,1.03.01,1.86-.82,1.85-1.85,0-1.03-.85-1.87-1.88-1.88-1.03,0-1.86.82-1.85,1.85" class="sym-l"/>
  <path d="M103.63,39.1c.02,1.08.9,1.97,1.98,1.98,1.08.02,1.96-.86,1.94-1.94,0-1.08-.89-1.96-1.98-1.98-1.08,0-1.95.86-1.94,1.94" class="sym-l"/>
  <path d="M105.8,41.36c.02,1.14.94,2.06,2.07,2.07,1.14.02,2.05-.9,2.04-2.04-.01-1.13-.94-2.06-2.07-2.07-1.13-.01-2.05.91-2.04,2.04" class="sym-l"/>
  <path d="M107.96,43.62c0,.63.28,1.2.72,1.6l3.02-3.02c-.4-.43-.97-.71-1.6-.72-1.19-.01-2.15.95-2.14,2.14Z" class="sym-l"/>
  <path d="M99.32,30.11c.01.94.78,1.7,1.71,1.71.94.01,1.69-.74,1.68-1.68,0-.93-.77-1.69-1.71-1.71-.93,0-1.68.74-1.68,1.68" class="sym-l"/>
  <path d="M101.5,32.37c.01.98.81,1.78,1.79,1.79.98.01,1.77-.78,1.76-1.76,0-.98-.81-1.78-1.79-1.79-.98,0-1.77.78-1.76,1.76" class="sym-l"/>
  <path d="M103.67,34.63c.01,1.03.86,1.87,1.88,1.88,1.03.01,1.86-.82,1.85-1.85,0-1.03-.85-1.87-1.88-1.88-1.03,0-1.86.82-1.85,1.85" class="sym-l"/>
  <path d="M105.84,36.89c.02,1.08.9,1.97,1.98,1.98,1.08.02,1.96-.86,1.94-1.94,0-1.08-.89-1.96-1.98-1.98-1.08,0-1.95.86-1.94,1.94" class="sym-l"/>
  <path d="M108,39.15c.02,1.14.94,2.06,2.07,2.07,1.14.02,2.05-.9,2.04-2.04-.01-1.13-.94-2.06-2.07-2.07-1.13-.01-2.05.91-2.04,2.04" class="sym-l"/>
  <path d="M110.16,41.41c0,.63.28,1.2.72,1.6l3.02-3.02c-.4-.43-.97-.71-1.6-.72-1.19-.01-2.15.95-2.14,2.14Z" class="sym-l"/>
  <path d="M101.53,27.9c.01.94.78,1.7,1.71,1.71.94.01,1.69-.74,1.68-1.68,0-.93-.77-1.69-1.71-1.71-.93,0-1.68.74-1.68,1.68" class="sym-l"/>
  <path d="M103.7,30.16c.01.98.81,1.78,1.79,1.79.98.01,1.77-.78,1.76-1.76,0-.98-.81-1.78-1.79-1.79-.98,0-1.77.78-1.76,1.76" class="sym-l"/>
  <path d="M105.88,32.42c.01,1.03.86,1.87,1.88,1.88,1.03.01,1.86-.82,1.85-1.85,0-1.03-.85-1.87-1.88-1.88-1.03,0-1.86.82-1.85,1.85" class="sym-l"/>
  <path d="M108.05,34.68c.02,1.08.9,1.97,1.98,1.98,1.08.02,1.96-.86,1.94-1.94,0-1.08-.89-1.96-1.98-1.98-1.08,0-1.95.86-1.94,1.94" class="sym-l"/>
  <path d="M110.21,36.94c.02,1.14.94,2.06,2.07,2.07,1.14.02,2.05-.9,2.04-2.04-.01-1.13-.94-2.06-2.07-2.07-1.13-.01-2.05.91-2.04,2.04" class="sym-l"/>
  <path d="M112.37,39.21c0,.63.28,1.2.72,1.6l3.02-3.02c-.4-.43-.97-.71-1.6-.72-1.19-.01-2.15.95-2.14,2.14Z" class="sym-l"/>
  <path d="M103.73,25.69c.01.94.78,1.7,1.71,1.71.94.01,1.69-.74,1.68-1.68,0-.93-.77-1.69-1.71-1.71-.93,0-1.68.74-1.68,1.68" class="sym-l"/>
  <path d="M105.91,27.95c.01.98.81,1.78,1.79,1.79.98.01,1.77-.78,1.76-1.76,0-.98-.81-1.78-1.79-1.79-.98,0-1.77.78-1.76,1.76" class="sym-l"/>
  <path d="M108.08,30.21c.01,1.03.86,1.87,1.88,1.88,1.03.01,1.86-.82,1.85-1.85,0-1.03-.85-1.87-1.88-1.88-1.03,0-1.86.82-1.85,1.85" class="sym-l"/>
  <path d="M110.25,32.48c.02,1.08.9,1.97,1.98,1.98,1.08.02,1.96-.86,1.94-1.94,0-1.08-.89-1.96-1.98-1.98-1.08,0-1.95.86-1.94,1.94" class="sym-l"/>
  <path d="M112.42,34.74c.02,1.14.94,2.06,2.07,2.07,1.14.02,2.05-.9,2.04-2.04-.01-1.13-.94-2.06-2.07-2.07-1.13-.01-2.05.91-2.04,2.04" class="sym-l"/>
  <path d="M114.58,37c0,.63.28,1.2.72,1.6l3.02-3.02c-.4-.43-.97-.71-1.6-.72-1.19-.01-2.15.95-2.14,2.14Z" class="sym-l"/>
  <path d="M105.94,23.48c.01.94.78,1.7,1.71,1.71.94.01,1.69-.74,1.68-1.68,0-.93-.77-1.69-1.71-1.71-.93,0-1.68.74-1.68,1.68" class="sym-l"/>
  <path d="M108.12,25.75c.01.98.81,1.78,1.79,1.79.98.01,1.77-.78,1.76-1.76,0-.98-.81-1.78-1.79-1.79-.98,0-1.77.78-1.76,1.76" class="sym-l"/>
  <path d="M110.29,28.01c.01,1.03.86,1.87,1.88,1.88,1.03.01,1.86-.82,1.85-1.85,0-1.03-.85-1.87-1.88-1.88-1.03,0-1.86.82-1.85,1.85" class="sym-l"/>
  <path d="M112.46,30.27c.02,1.08.9,1.97,1.98,1.98,1.08.02,1.96-.86,1.94-1.94,0-1.08-.89-1.96-1.98-1.98-1.08,0-1.95.86-1.94,1.94" class="sym-l"/>
  <path d="M114.63,32.53c.02,1.14.94,2.06,2.07,2.07,1.14.02,2.05-.9,2.04-2.04-.01-1.13-.94-2.06-2.07-2.07-1.13-.01-2.05.91-2.04,2.04" class="sym-l"/>
  <path d="M116.79,34.79c0,.63.28,1.2.72,1.6l3.02-3.02c-.4-.43-.97-.71-1.6-.72-1.19-.01-2.15.95-2.14,2.14Z" class="sym-l"/>
  <path d="M108.15,21.28c.01.94.78,1.7,1.71,1.71.49,0,.93-.2,1.24-.53l-2.41-2.41c-.33.31-.53.75-.53,1.23Z" class="sym-l"/>
  <path d="M110.33,23.54c.01.98.81,1.78,1.79,1.79.51,0,.97-.21,1.3-.55l-2.53-2.53c-.34.32-.56.78-.55,1.29Z" class="sym-l"/>
  <path d="M112.5,25.8c.01,1.03.86,1.87,1.88,1.88.54,0,1.02-.21,1.36-.58l-2.66-2.66c-.36.34-.58.82-.58,1.35Z" class="sym-l"/>
  <path d="M114.67,28.06c.02,1.08.9,1.97,1.98,1.98.56,0,1.07-.22,1.42-.6l-2.79-2.79c-.38.35-.61.86-.61,1.42Z" class="sym-l"/>
  <path d="M116.83,30.32c.02,1.14.94,2.06,2.07,2.07.59,0,1.12-.24,1.49-.63l-2.93-2.93c-.4.37-.64.9-.63,1.49Z" class="sym-l"/>
  <path d="M118.99,32.58c0,.63.28,1.2.72,1.6l1.55-1.55-1.61-1.61c-.41.39-.67.95-.66,1.56Z" class="sym-l"/>
</svg>
