<?xml version="1.0" encoding="UTF-8"?>
<svg xmlns="http://www.w3.org/2000/svg" viewBox="0 0 177.38 177.38">
  <defs>
    <style>
      .sym-f { fill: #1A1A1A; fill-rule: evenodd; }
      .sym-l { fill: #00AEEF; fill-rule: evenodd; }
    </style>
  </defs>
  <path class="sym-f" d="M69.25,19.39l-.65.65-49.74,49.74c-10.87,10.59-7.94,30.1,1.02,39.07l.02-.02,48.65,48.65c11.41,11.68,29.25,10.89,40.11.02l-33.92-33.92,32.7-32.7-20.04-20.04-32.7,32.7-14.76-14.76L108.68,20.04c-10.05-9.78-29.38-10.16-39.43-.66"/>
  <path class="sym-l" d="M88.63,40.09l49.11,49.11-30.37,30.37,20.04,20.04,30.37-30.37c9.78-9.51,12.99-26.82,1.31-38.78l-50.42-50.42-20.04,20.04Z"/>
  <path class="sym-f" d="M108.8,21.85c-.39.39-.39,1.02,0,1.41.39.39,1.03.39,1.42,0,.39-.39.39-1.02,0-1.41-.39-.39-1.03-.39-1.42,0M107.12,23.52c-.39.39-.39,1.02,0,1.41.39.39,1.03.39,1.42,0,.39-.39.39-1.02,0-1.41-.39-.39-1.03-.39-1.42,0M110.62,23.66c-.31.31-.31.82,0,1.13.31.31.82.31,1.14,0,.31-.31.31-.82,0-1.13-.31-.31-.82-.31-1.14,0M105.45,25.18c-.39.39-.39,1.02,0,1.41.39.39,1.03.39,1.42,0,.39-.39.39-1.02,0-1.41-.39-.39-1.03-.39-1.42,0M108.94,25.32c-.31.31-.31.82,0,1.13.31.31.82.31,1.14,0s.31-.82,0-1.13c-.31-.31-.82-.31-1.14,0M112.41,25.44c-.25.25-.25.65,0,.9.25.25.66.25.91,0,.25-.25.25-.65,0-.9-.25-.25-.66-.25-.91,0M103.84,26.77c-.39.39-.39,1.02,0,1.41.39.39,1.03.39,1.42,0,.39-.39.39-1.02,0-1.41-.39-.39-1.03-.39-1.42,0M107.26,26.99c-.31.31-.31.82,0,1.13.31.31.82.31,1.14,0,.31-.31.31-.82,0-1.13s-.82-.31-1.14,0M110.73,27.1c-.25.25-.25.65,0,.9.25.25.66.25.91,0,.25-.25.25-.65,0-.9-.25-.25-.66-.25-.91,0M114.17,27.19c-.2.2-.2.52,0,.72.2.2.53.2.73,0,.2-.2.2-.52,0-.72-.2-.2-.53-.2-.73,0M102.17,28.44c-.39.39-.39,1.02,0,1.41.39.39,1.03.39,1.42,0,.39-.39.39-1.02,0-1.41-.39-.39-1.03-.39-1.42,0M105.59,28.65c-.31.31-.31.82,0,1.13.31.31.82.31,1.14,0,.31-.31.31-.82,0-1.13-.31-.31-.82-.31-1.14,0M109.05,28.76c-.25.25-.25.65,0,.9.25.25.66.25.91,0,.25-.25.25-.65,0-.9-.25-.25-.66-.25-.91,0M112.5,28.86c-.2.2-.2.52,0,.72.2.2.53.2.73,0,.2-.2.2-.52,0-.72-.2-.2-.53-.2-.73,0M115.92,28.93c-.16.16-.16.42,0,.58.16.16.42.16.58,0,.16-.16.16-.42,0-.58-.16-.16-.42-.16-.58,0M100.49,30.1c-.39.39-.39,1.02,0,1.41.39.39,1.03.39,1.42,0,.39-.39.39-1.02,0-1.41-.39-.39-1.03-.39-1.42,0M103.99,30.24c-.31.31-.31.82,0,1.13.31.31.82.31,1.14,0,.31-.31.31-.82,0-1.13s-.82-.31-1.14,0M107.38,30.43c-.25.25-.25.65,0,.9.25.25.66.25.91,0,.25-.25.25-.65,0-.9-.25-.25-.66-.25-.91,0M110.82,30.52c-.2.2-.2.52,0,.72.2.2.53.2.73,0,.2-.2.2-.52,0-.72-.2-.2-.53-.2-.73,0M114.24,30.59c-.16.16-.16.42,0,.58.16.16.42.16.58,0,.16-.16.16-.42,0-.58-.16-.16-.42-.16-.58,0M98.82,31.76c-.39.39-.39,1.02,0,1.41.39.39,1.03.39,1.42,0,.39-.39.39-1.02,0-1.41-.39-.39-1.03-.39-1.42,0M102.31,31.91c-.31.31-.31.82,0,1.13.31.31.82.31,1.13,0,.31-.31.31-.82,0-1.13-.31-.31-.82-.31-1.13,0M105.7,32.09c-.25.25-.25.65,0,.9.25.25.66.25.91,0,.25-.25.25-.65,0-.9-.25-.25-.66-.25-.91,0M109.15,32.18c-.2.2-.2.52,0,.72.2.2.53.2.73,0,.2-.2.2-.52,0-.72-.2-.2-.53-.2-.73,0M112.57,32.26c-.16.16-.16.42,0,.58.16.16.42.16.58,0,.16-.16.16-.42,0-.58-.16-.16-.42-.16-.58,0M97.14,33.43c-.39.39-.39,1.02,0,1.41.39.39,1.03.39,1.42,0,.39-.39.39-1.02,0-1.41-.39-.39-1.03-.39-1.42,0M100.63,33.57c-.31.31-.31.82,0,1.13.31.31.82.31,1.14,0,.31-.31.31-.82,0-1.13-.31-.31-.82-.31-1.14,0M104.1,33.68c-.25.25-.25.65,0,.9.25.25.66.25.91,0,.25-.25.25-.65,0-.9-.25-.25-.66-.25-.91,0M107.47,33.85c-.2.2-.2.52,0,.72.2.2.53.2.73,0,.2-.2.2-.52,0-.72-.2-.2-.53-.2-.73,0M110.89,33.92c-.16.16-.16.42,0,.58.16.16.42.16.58,0,.16-.16.16-.42,0-.58-.16-.16-.42-.16-.58,0M95.47,35.09c-.39.39-.39,1.02,0,1.41.39.39,1.03.39,1.42,0,.39-.39.39-1.02,0-1.41-.39-.39-1.03-.39-1.42,0M98.96,35.23c-.31.31-.31.82,0,1.13.31.31.82.31,1.14,0,.31-.31.31-.82,0-1.13s-.82-.31-1.14,0M102.42,35.35c-.25.25-.25.65,0,.9.25.25.66.25.91,0,.25-.25.25-.65,0-.9-.25-.25-.66-.25-.91,0M105.79,35.51c-.2.2-.2.52,0,.72.2.2.53.2.73,0,.2-.2.2-.52,0-.72s-.53-.2-.73,0M109.22,35.58c-.16.16-.16.42,0,.58.16.16.42.16.58,0,.16-.16.16-.42,0-.58-.16-.16-.42-.16-.58,0M93.79,36.76c-.39.39-.39,1.02,0,1.41.39.39,1.03.39,1.42,0,.39-.39.39-1.02,0-1.41-.39-.39-1.03-.39-1.42,0M97.28,36.9c-.31.31-.31.82,0,1.13.31.31.82.31,1.14,0s.31-.82,0-1.13-.82-.31-1.14,0M100.75,37.01c-.25.25-.25.65,0,.9.25.25.66.25.91,0,.25-.25.25-.65,0-.9-.25-.25-.66-.25-.91,0M104.19,37.1c-.2.2-.2.52,0,.72.2.2.53.2.73,0,.2-.2.2-.52,0-.72-.2-.2-.53-.2-.73,0M107.54,37.25c-.16.16-.16.42,0,.58.16.16.42.16.58,0,.16-.16.16-.42,0-.58-.16-.16-.42-.16-.58,0M92.11,38.42c-.39.39-.39,1.02,0,1.41.39.39,1.03.39,1.42,0,.39-.39.39-1.02,0-1.41-.39-.39-1.03-.39-1.42,0M95.61,38.56c-.31.31-.31.82,0,1.13.31.31.82.31,1.14,0,.31-.31.31-.82,0-1.13-.31-.31-.82-.31-1.14,0M99.07,38.68c-.25.25-.25.65,0,.9.25.25.66.25.91,0,.25-.25.25-.65,0-.9-.25-.25-.66-.25-.91,0M102.52,38.77c-.2.2-.2.52,0,.72.2.2.53.2.73,0,.2-.2.2-.52,0-.72-.2-.2-.53-.2-.73,0M105.87,38.91c-.16.16-.16.42,0,.58.16.16.42.16.58,0,.16-.16.16-.42,0-.58-.16-.16-.42-.16-.58,0M90.44,40.09c-.39.39-.39,1.02,0,1.41.39.39,1.03.39,1.42,0,.39-.39.39-1.02,0-1.41-.39-.39-1.03-.39-1.42,0M93.93,40.23c-.31.31-.31.82,0,1.13.31.31.82.31,1.13,0,.31-.31.31-.82,0-1.13s-.82-.31-1.13,0M97.4,40.34c-.25.25-.25.65,0,.9.25.25.66.25.91,0,.25-.25.25-.65,0-.9-.25-.25-.66-.25-.91,0M100.84,40.43c-.2.2-.2.52,0,.72.2.2.53.2.73,0,.2-.2.2-.52,0-.72-.2-.2-.53-.2-.73,0M104.26,40.5c-.16.16-.16.42,0,.58.16.16.42.16.58,0,.16-.16.16-.42,0-.58-.16-.16-.42-.16-.58,0M92.25,41.89c-.31.31-.31.82,0,1.13s.82.31,1.14,0c.31-.31.31-.82,0-1.13-.31-.31-.82-.31-1.14,0M95.72,42c-.25.25-.25.65,0,.9.25.25.66.25.91,0,.25-.25.25-.65,0-.9-.25-.25-.66-.25-.91,0M99.16,42.1c-.2.2-.2.52,0,.72.2.2.53.2.73,0,.2-.2.2-.52,0-.72-.2-.2-.53-.2-.73,0M102.59,42.17c-.16.16-.16.42,0,.58.16.16.42.16.58,0,.16-.16.16-.42,0-.58-.16-.16-.42-.16-.58,0M94.04,43.67c-.25.25-.25.65,0,.9.25.25.66.25.91,0,.25-.25.25-.65,0-.9-.25-.25-.66-.25-.91,0M97.49,43.76c-.2.2-.2.52,0,.72.2.2.53.2.73,0,.2-.2.2-.52,0-.72-.2-.2-.53-.2-.73,0M100.91,43.83c-.16.16-.16.42,0,.58.16.16.42.16.58,0,.16-.16.16-.42,0-.58-.16-.16-.42-.16-.58,0M95.81,45.42c-.2.2-.2.52,0,.72.2.2.53.2.73,0,.2-.2.2-.52,0-.72-.2-.2-.53-.2-.73,0M99.24,45.5c-.16.16-.16.42,0,.58.16.16.42.16.58,0,.16-.16.16-.42,0-.58-.16-.16-.42-.16-.58,0M97.56,47.16c-.16.16-.16.42,0,.58.16.16.42.16.58,0,.16-.16.16-.42,0-.58-.16-.16-.42-.16-.58,0"/>
  <path class="sym-f" d="M106.94,20.01c-.39.38-.47.96-.24,1.42-.47-.22-1.05-.14-1.43.24-.35.35-.45.86-.3,1.3-.44-.15-.95-.06-1.31.29-.39.39-.47.96-.24,1.42-.47-.22-1.04-.14-1.43.24-.39.38-.47.96-.24,1.42-.47-.22-1.05-.14-1.43.24-.39.39-.47.96-.24,1.42-.47-.23-1.05-.14-1.43.24-.39.39-.47.96-.24,1.42-.47-.22-1.04-.14-1.43.24-.39.38-.47.96-.24,1.42-.47-.22-1.05-.14-1.43.24-.39.39-.47.96-.24,1.42-.47-.22-1.04-.14-1.43.24s-.47.96-.24,1.42c-.47-.22-1.04-.14-1.43.24-.39.38-.47.96-.24,1.42-.47-.22-1.05-.14-1.43.24-.39.39-.47.96-.24,1.42-.47-.22-1.04-.14-1.43.24-.49.49-.49,1.28,0,1.76.49.49,1.29.49,1.77,0,.39-.39.47-.96.24-1.42.47.22,1.04.14,1.43-.24.39-.38.47-.96.24-1.42.47.22,1.05.14,1.43-.24.39-.39.47-.96.24-1.42.47.22,1.04.14,1.43-.24.39-.39.47-.96.24-1.42.47.22,1.05.14,1.43-.24.39-.38.47-.96.24-1.42.47.22,1.05.14,1.43-.24.39-.39.47-.96.24-1.42.47.22,1.04.14,1.43-.24.39-.38.47-.96.24-1.42.47.22,1.05.14,1.43-.24.39-.38.47-.96.24-1.42.47.23,1.05.14,1.43-.24.39-.39.47-.96.24-1.42.47.22,1.04.14,1.43-.24.35-.35.45-.86.3-1.3.44.15.95.06,1.31-.29.39-.38.47-.96.24-1.42.47.22,1.05.14,1.43-.24.39-.39.47-.96.24-1.42l-.59-.58c-.47-.22-1.04-.14-1.43.24Z"/>
</svg>
