<?xml version="1.0" encoding="UTF-8"?>
<svg xmlns="http://www.w3.org/2000/svg" viewBox="0 0 335.66 80.00">
  <defs>
    <mask id="halftone-knockout" maskUnits="userSpaceOnUse" x="-5%" y="-5%" width="110%" height="110%">
      <rect x="-1000" y="-1000" width="3000" height="3000" fill="white"/>
      <path d="M108.8,21.85c-.39.39-.39,1.02,0,1.41.39.39,1.03.39,1.42,0,.39-.39.39-1.02,0-1.41-.39-.39-1.03-.39-1.42,0M107.12,23.52c-.39.39-.39,1.02,0,1.41.39.39,1.03.39,1.42,0,.39-.39.39-1.02,0-1.41-.39-.39-1.03-.39-1.42,0M110.62,23.66c-.31.31-.31.82,0,1.13.31.31.82.31,1.14,0,.31-.31.31-.82,0-1.13-.31-.31-.82-.31-1.14,0M105.45,25.18c-.39.39-.39,1.02,0,1.41.39.39,1.03.39,1.42,0,.39-.39.39-1.02,0-1.41-.39-.39-1.03-.39-1.42,0M108.94,25.32c-.31.31-.31.82,0,1.13.31.31.82.31,1.14,0s.31-.82,0-1.13c-.31-.31-.82-.31-1.14,0M112.41,25.44c-.25.25-.25.65,0,.9.25.25.66.25.91,0,.25-.25.25-.65,0-.9-.25-.25-.66-.25-.91,0M103.84,26.77c-.39.39-.39,1.02,0,1.41.39.39,1.03.39,1.42,0,.39-.39.39-1.02,0-1.41-.39-.39-1.03-.39-1.42,0M107.26,26.99c-.31.31-.31.82,0,1.13.31.31.82.31,1.14,0,.31-.31.31-.82,0-1.13s-.82-.31-1.14,0M110.73,27.1c-.25.25-.25.65,0,.9.25.25.66.25.91,0,.25-.25.25-.65,0-.9-.25-.25-.66-.25-.91,0M114.17,27.19c-.2.2-.2.52,0,.72.2.2.53.2.73,0,.2-.2.2-.52,0-.72-.2-.2-.53-.2-.73,0M102.17,28.44c-.39.39-.39,1.02,0,1.41.39.39,1.03.39,1.42,0,.39-.39.39-1.02,0-1.41-.39-.39-1.03-.39-1.42,0M105.59,28.65c-.31.31-.31.82,0,1.13.31.31.82.31,1.14,0,.31-.31.31-.82,0-1.13-.31-.31-.82-.31-1.14,0M109.05,28.76c-.25.25-.25.65,0,.9.25.25.66.25.91,0,.25-.25.25-.65,0-.9-.25-.25-.66-.25-.91,0M112.5,28.86c-.2.2-.2.52,0,.72.2.2.53.2.73,0,.2-.2.2-.52,0-.72-.2-.2-.53-.2-.73,0M115.92,28.93c-.16.16-.16.42,0,.58.16.16.42.16.58,0,.16-.16.16-.42,0-.58-.16-.16-.42-.16-.58,0M100.49,30.1c-.39.39-.39,1.02,0,1.41.39.39,1.03.39,1.42,0,.39-.39.39-1.02,0-1.41-.39-.39-1.03-.39-1.42,0M103.99,30.24c-.31.31-.31.82,0,1.13.31.31.82.31,1.14,0,.31-.31.31-.82,0-1.13s-.82-.31-1.14,0M107.38,30.43c-.25.25-.25.65,0,.9.25.25.66.25.91,0,.25-.25.25-.65,0-.9-.25-.25-.66-.25-.91,0M110.82,30.52c-.2.2-.2.52,0,.72.2.2.53.2.73,0,.2-.2.2-.52,0-.72-.2-.2-.53-.2-.73,0M114.24,30.59c-.16.16-.16.42,0,.58.16.16.42.16.58,0,.16-.16.16-.42,0-.58-.16-.16-.42-.16-.58,0M98.82,31.76c-.39.39-.39,1.02,0,1.41.39.39,1.03.39,1.42,0,.39-.39.39-1.02,0-1.41-.39-.39-1.03-.39-1.42,0M102.31,31.91c-.31.31-.31.82,0,1.13.31.31.82.31,1.13,0,.31-.31.31-.82,0-1.13-.31-.31-.82-.31-1.13,0M105.7,32.09c-.25.25-.25.65,0,.9.25.25.66.25.91,0,.25-.25.25-.65,0-.9-.25-.25-.66-.25-.91,0M109.15,32.18c-.2.2-.2.52,0,.72.2.2.53.2.73,0,.2-.2.2-.52,0-.72-.2-.2-.53-.2-.73,0M112.57,32.26c-.16.16-.16.42,0,.58.16.16.42.16.58,0,.16-.16.16-.42,0-.58-.16-.16-.42-.16-.58,0M97.14,33.43c-.39.39-.39,1.02,0,1.41.39.39,1.03.39,1.42,0,.39-.39.39-1.02,0-1.41-.39-.39-1.03-.39-1.42,0M100.63,33.57c-.31.31-.31.82,0,1.13.31.31.82.31,1.14,0,.31-.31.31-.82,0-1.13-.31-.31-.82-.31-1.14,0M104.1,33.68c-.25.25-.25.65,0,.9.25.25.66.25.91,0,.25-.25.25-.65,0-.9-.25-.25-.66-.25-.91,0M107.47,33.85c-.2.2-.2.52,0,.72.2.2.53.2.73,0,.2-.2.2-.52,0-.72-.2-.2-.53-.2-.73,0M110.89,33.92c-.16.16-.16.42,0,.58.16.16.42.16.58,0,.16-.16.16-.42,0-.58-.16-.16-.42-.16-.58,0M95.47,35.09c-.39.39-.39,1.02,0,1.41.39.39,1.03.39,1.42,0,.39-.39.39-1.02,0-1.41-.39-.39-1.03-.39-1.42,0M98.96,35.23c-.31.31-.31.82,0,1.13.31.31.82.31,1.14,0,.31-.31.31-.82,0-1.13s-.82-.31-1.14,0M102.42,35.35c-.25.25-.25.65,0,.9.25.25.66.25.91,0,.25-.25.25-.65,0-.9-.25-.25-.66-.25-.91,0M105.79,35.51c-.2.2-.2.52,0,.72.2.2.53.2.73,0,.2-.2.2-.52,0-.72s-.53-.2-.73,0M109.22,35.58c-.16.16-.16.42,0,.58.16.16.42.16.58,0,.16-.16.16-.42,0-.58-.16-.16-.42-.16-.58,0M93.79,36.76c-.39.39-.39,1.02,0,1.41.39.39,1.03.39,1.42,0,.39-.39.39-1.02,0-1.41-.39-.39-1.03-.39-1.42,0M97.28,36.9c-.31.31-.31.82,0,1.13.31.31.82.31,1.14,0s.31-.82,0-1.13-.82-.31-1.14,0M100.75,37.01c-.25.25-.25.65,0,.9.25.25.66.25.91,0,.25-.25.25-.65,0-.9-.25-.25-.66-.25-.91,0M104.19,37.1c-.2.2-.2.52,0,.72.2.2.53.2.73,0,.2-.2.2-.52,0-.72-.2-.2-.53-.2-.73,0M107.54,37.25c-.16.16-.16.42,0,.58.16.16.42.16.58,0,.16-.16.16-.42,0-.58-.16-.16-.42-.16-.58,0M92.11,38.42c-.39.39-.39,1.02,0,1.41.39.39,1.03.39,1.42,0,.39-.39.39-1.02,0-1.41-.39-.39-1.03-.39-1.42,0M95.61,38.56c-.31.31-.31.82,0,1.13.31.31.82.31,1.14,0,.31-.31.31-.82,0-1.13-.31-.31-.82-.31-1.14,0M99.07,38.68c-.25.25-.25.65,0,.9.25.25.66.25.91,0,.25-.25.25-.65,0-.9-.25-.25-.66-.25-.91,0M102.52,38.77c-.2.2-.2.52,0,.72.2.2.53.2.73,0,.2-.2.2-.52,0-.72-.2-.2-.53-.2-.73,0M105.87,38.91c-.16.16-.16.42,0,.58.16.16.42.16.58,0,.16-.16.16-.42,0-.58-.16-.16-.42-.16-.58,0M90.44,40.09c-.39.39-.39,1.02,0,1.41.39.39,1.03.39,1.42,0,.39-.39.39-1.02,0-1.41-.39-.39-1.03-.39-1.42,0M93.93,40.23c-.31.31-.31.82,0,1.13.31.31.82.31,1.13,0,.31-.31.31-.82,0-1.13s-.82-.31-1.13,0M97.4,40.34c-.25.25-.25.65,0,.9.25.25.66.25.91,0,.25-.25.25-.65,0-.9-.25-.25-.66-.25-.91,0M100.84,40.43c-.2.2-.2.52,0,.72.2.2.53.2.73,0,.2-.2.2-.52,0-.72-.2-.2-.53-.2-.73,0M104.26,40.5c-.16.16-.16.42,0,.58.16.16.42.16.58,0,.16-.16.16-.42,0-.58-.16-.16-.42-.16-.58,0M92.25,41.89c-.31.31-.31.82,0,1.13s.82.31,1.14,0c.31-.31.31-.82,0-1.13-.31-.31-.82-.31-1.14,0M95.72,42c-.25.25-.25.65,0,.9.25.25.66.25.91,0,.25-.25.25-.65,0-.9-.25-.25-.66-.25-.91,0M99.16,42.1c-.2.2-.2.52,0,.72.2.2.53.2.73,0,.2-.2.2-.52,0-.72-.2-.2-.53-.2-.73,0M102.59,42.17c-.16.16-.16.42,0,.58.16.16.42.16.58,0,.16-.16.16-.42,0-.58-.16-.16-.42-.16-.58,0M94.04,43.67c-.25.25-.25.65,0,.9.25.25.66.25.91,0,.25-.25.25-.65,0-.9-.25-.25-.66-.25-.91,0M97.49,43.76c-.2.2-.2.52,0,.72.2.2.53.2.73,0,.2-.2.2-.52,0-.72-.2-.2-.53-.2-.73,0M100.91,43.83c-.16.16-.16.42,0,.58.16.16.42.16.58,0,.16-.16.16-.42,0-.58-.16-.16-.42-.16-.58,0M95.81,45.42c-.2.2-.2.52,0,.72.2.2.53.2.73,0,.2-.2.2-.52,0-.72-.2-.2-.53-.2-.73,0M99.24,45.5c-.16.16-.16.42,0,.58.16.16.42.16.58,0,.16-.16.16-.42,0-.58-.16-.16-.42-.16-.58,0M97.56,47.16c-.16.16-.16.42,0,.58.16.16.42.16.58,0,.16-.16.16-.42,0-.58-.16-.16-.42-.16-.58,0" fill="black" fill-rule="evenodd" transform="translate(0,0) scale(0.451009)"/>
      <path d="M106.94,20.01c-.39.38-.47.96-.24,1.42-.47-.22-1.05-.14-1.43.24-.35.35-.45.86-.3,1.3-.44-.15-.95-.06-1.31.29-.39.39-.47.96-.24,1.42-.47-.22-1.04-.14-1.43.24-.39.38-.47.96-.24,1.42-.47-.22-1.05-.14-1.43.24-.39.39-.47.96-.24,1.42-.47-.23-1.05-.14-1.43.24-.39.39-.47.96-.24,1.42-.47-.22-1.04-.14-1.43.24-.39.38-.47.96-.24,1.42-.47-.22-1.05-.14-1.43.24-.39.39-.47.96-.24,1.42-.47-.22-1.04-.14-1.43.24s-.47.96-.24,1.42c-.47-.22-1.04-.14-1.43.24-.39.38-.47.96-.24,1.42-.47-.22-1.05-.14-1.43.24-.39.39-.47.96-.24,1.42-.47-.22-1.04-.14-1.43.24-.49.49-.49,1.28,0,1.76.49.49,1.29.49,1.77,0,.39-.39.47-.96.24-1.42.47.22,1.04.14,1.43-.24.39-.38.47-.96.24-1.42.47.22,1.05.14,1.43-.24.39-.39.47-.96.24-1.42.47.22,1.04.14,1.43-.24.39-.39.47-.96.24-1.42.47.22,1.05.14,1.43-.24.39-.38.47-.96.24-1.42.47.22,1.05.14,1.43-.24.39-.39.47-.96.24-1.42.47.22,1.04.14,1.43-.24.39-.38.47-.96.24-1.42.47.22,1.05.14,1.43-.24.39-.38.47-.96.24-1.42.47.23,1.05.14,1.43-.24.39-.39.47-.96.24-1.42.47.22,1.04.14,1.43-.24.35-.35.45-.86.3-1.3.44.15.95.06,1.31-.29.39-.38.47-.96.24-1.42.47.22,1.05.14,1.43-.24.39-.39.47-.96.24-1.42l-.59-.58c-.47-.22-1.04-.14-1.43.24Z" fill="black" fill-rule="evenodd" transform="translate(0,0) scale(0.451009)"/>
    </mask>
  </defs>
  <g fill="#FFFFFF" fill-rule="evenodd">
    <path d="M69.25,19.39l-.65.65-49.74,49.74c-10.87,10.59-7.94,30.1,1.02,39.07l.02-.02,48.65,48.65c11.41,11.68,29.25,10.89,40.11.02l-33.92-33.92,32.7-32.7-20.04-20.04-32.7,32.7-14.76-14.76L108.68,20.04c-10.05-9.78-29.38-10.16-39.43-.66" transform="translate(0,0) scale(0.451009)"/>
    <path d="M88.63,40.09l49.11,49.11-30.37,30.37,20.04,20.04,30.37-30.37c9.78-9.51,12.99-26.82,1.31-38.78l-50.42-50.42-20.04,20.04Z" transform="translate(0,0) scale(0.451009)" mask="url(#halftone-knockout)"/>
    <path d="M71 0 197 715H655L628 563H345L319 415H548L521 265H293L246 0Z" transform="translate(81.60,67.04) scale(0.057600,-0.057600)"/>
    <path d="M82 154 181 714H355L262 186Q253 137 297 137Q314 137 332 143L306 1Q274 -12 223 -12Q144 -12 105.5 30.5Q67 73 82 154Z" transform="translate(113.40,67.04) scale(0.057600,-0.057600)"/>
    <path d="M385 526Q500 526 545.0 464.5Q590 403 590 333Q590 307 585 279Q579 241 571 220H246Q246 219 246 217Q246 174 279.5 153.0Q313 132 368 132Q412 132 458.5 144.5Q505 157 531 174L504 22Q432 -12 320 -12Q190 -12 129.5 50.0Q69 112 69 197Q69 225 75 257Q95 372 183.0 449.0Q271 526 385 526ZM359 388Q324 388 298.0 367.5Q272 347 260 313H431Q431 316 431 320Q431 349 413.5 368.5Q396 388 359 388Z" transform="translate(132.46,67.04) scale(0.057600,-0.057600)"/>
    <path d="M546 0H359L298 143L186 0H-1L221 261L93 514H279L339 380L447 514H633L416 261Z" transform="translate(165.00,67.04) scale(0.057600,-0.057600)"/>
    <path d="M401 526Q524 526 589.0 450.0Q654 374 633 257Q613 140 521.0 64.0Q429 -12 306 -12Q184 -12 119.0 64.0Q54 140 74 257Q95 374 187.0 450.0Q279 526 401 526ZM444 340Q419 372 374.0 372.0Q329 372 294.0 340.5Q259 309 249.0 257.0Q239 205 263.5 173.5Q288 142 333.0 142.0Q378 142 413.5 173.5Q449 205 459 257Q469 308 444 340Z" transform="translate(196.40,67.04) scale(0.057600,-0.057600)"/>
    <path d="M71 0 198 715H374L275 156H544L516 0Z" transform="translate(231.88,67.04) scale(0.057600,-0.057600)"/>
    <path d="M150 480Q235 526 343 526Q449 526 502.0 479.0Q555 432 555 361Q555 340 551 316L496 0H333L344 61Q283 -12 192 -12Q119 -12 83.0 24.5Q47 61 47 106Q47 119 49 132Q61 197 114.5 238.0Q168 279 255 292L382 309L384 317Q385 322 385 327Q385 349 364.5 363.5Q344 378 303 378Q208 378 122 324ZM259 113Q294 113 326.0 139.0Q358 165 365 204L366 214L284 203Q221 195 215 155Q214 150 214 146Q214 133 225.0 123.0Q236 113 259 113Z" transform="translate(262.41,67.04) scale(0.057600,-0.057600)"/>
    <path d="M229 61 218 0H59L186 714H358L313 461Q338 490 379.5 508.0Q421 526 466 526Q562 526 618.0 451.0Q674 376 653 257Q631 138 548.5 63.0Q466 -12 367 -12Q319 -12 281.5 8.0Q244 28 229 61ZM355 138Q399 138 434.0 170.5Q469 203 479.0 255.0Q489 307 464.5 339.5Q440 372 396 372Q350 372 315.0 340.0Q280 308 270 255Q261 203 285.5 170.5Q310 138 355 138Z" transform="translate(294.03,67.04) scale(0.057600,-0.057600)"/>
  </g>
</svg>
