<?xml version="1.0" encoding="UTF-8"?>
<svg xmlns="http://www.w3.org/2000/svg" viewBox="0 0 1470 267.5">
  <g fill="#FFFFFF" fill-rule="evenodd">
    <path d="M151.06,7.7l-10.46,18.13-.17.3-61.88,107.19h0S5.18,260.37,5.18,260.37l-.07.11h133.1s0,0,0,0h0v-43.19s0-.04,0-.04h-58.19l.28-.18-.31.17.04-.08,30.27-52.43.28-.48,3.59-6.21,1.8-3.11h0s0,0,0,0v-.02s35.95-62.25,35.95-62.25l.03-.05,15.56,26.96h49.92L151.96,6.13l-.9,1.57ZM233.28,147.06h-68.47v43.24h42.65l15.56,26.95h-57.31v43.24h133.01s.09,0,.09,0l-65.49-113.42h-.04Z"/>
    <path d="M513.45,151.21l-16.32,92.12c-61.39,34.05-158.08,22.49-158.45-59.49-2.34-91.49,106.98-145.37,182.14-102.39l-8.16,46.06c-27.95-20.64-73.58-25.75-101.6-3.29-15.58,11.62-24.39,32.47-24.22,52.78-.19,40.16,41.34,47.29,75.02,37.64l4.74-26.85h-36.59l6.58-36.59h76.86Z"/>
    <path d="M590.83,122.52l-3.95,22.9c11.72-19.85,30.74-29.45,51.06-25.01l-7.9,43.96c-56.91-11.6-54.92,55.69-62.91,93.44h-45.8l23.69-135.29h45.8Z"/>
    <path d="M702.96,221.49c32.93,2.51,51.07-60.55,10.79-61.59-32.1-2.12-49.84,60.03-10.79,61.59M726.12,257.81l2.89-16.06c-41.07,43.15-106.71,10.28-93.18-51.59,5.47-37.02,37.29-70.9,73.7-70.81,13.61-.13,28.38,5.53,34.48,17.11l2.37-13.95h45.27l-23.69,135.29h-41.85Z"/>
    <path d="M879.57,117.52l-1.05,5h26.58l-6.05,35.27h-26.32l-17.64,100.02h-45.8l17.64-100.02h-17.64l6.05-35.27h18.16c3.17-43.05,46.27-65.29,85.55-52.91l-6.32,36.06c-11.55-5.28-32.38-2.24-33.17,11.84"/>
    <polygon points="901.68 257.81 925.37 122.52 971.17 122.52 947.48 257.81 901.68 257.81"/>
    <path d="M940.9,72.63c27.98-21.31,55.17,10.07,28.82,34.09-28.1,20.9-55.45-9.71-28.82-34.09"/>
    <path d="M1050.4,114.89l-1.58,8.69h29.48l-4.74,27.37h-29.21l-18.95,106.86h-34.22l18.95-106.86h-18.16l4.74-27.37h18.16c2.33-16.65,7.84-33.49,21.19-43.3,13-11.47,41.23-16.65,57.25-9.08l-5,27.9c-13.92-6.22-35.59-1.79-37.9,15.79"/>
    <path d="M1084.08,221.49l26.59-150.56h34.22l-25.27,144.24c-3.44,15.53,7.28,17.7,18.43,13.95l-5.27,29.22c-26.85,8.86-56.24-3.38-48.7-36.85"/>
    <path d="M1234.38,149.1c-16.98-.12-30.52,11.35-36.06,27.38h61.07c1.91-15.49-8.21-27.99-25-27.38M1239.64,120.41c47.13-2.53,61.17,42.98,47.12,78.44h-92.65c-2.66,43.19,58.13,37.25,81.6,18.43l-5.79,32.37c-41.86,22.5-111.58,14.63-111.33-43.7-.54-44.08,35.86-86.57,81.07-85.54"/>
    <polygon points="1420.99 257.81 1383.09 257.81 1363.09 212.54 1326.24 257.81 1288.33 257.81 1345.98 189.11 1313.6 123.57 1351.5 123.57 1370.98 166.21 1405.2 123.57 1443.1 123.57 1387.57 189.11 1420.99 257.81"/>
    <polygon points="165.72 217.25 165.72 260.48 298.81 260.48 223.03 217.25 165.72 217.25"/>
    <polygon points="78.35 218.14 78.37 218.13 5.11 260.48 138.21 260.48 138.21 260.48 138.21 260.47 138.21 217.25 80 217.25 80.05 217.16 78.35 218.14"/>
    <polygon points="151.89 6.27 151.06 7.7 140.59 25.82 140.42 26.12 78.54 133.31 78.54 133.31 80.83 134.64 80.83 134.64 115.98 154.93 115.98 154.92 115.98 154.92 151.96 92.6 151.96 6.13 151.89 6.27"/>
    <polygon points="232.43 147.06 164.81 147.06 164.81 190.3 207.47 190.3 223.03 217.25 223.93 217.77 298.81 260.48 233.33 147.06 232.43 147.06"/>
    <polygon points="151.06 7.7 140.59 25.82 140.42 26.12 78.54 133.31 78.54 133.31 5.18 260.37 8.87 258.25 80.42 134.33 80.43 134.33 142.27 27.2 142.45 26.9 151.96 10.42 151.96 10.42 151.96 6.13 151.06 7.7"/>
    <text x="1425" y="258" font-family="Arial, Helvetica, sans-serif" font-size="30" fill="#1A1A1A" font-weight="400">®</text>
  </g>
</svg>
