<?xml version="1.0" encoding="UTF-8"?>
<svg xmlns="http://www.w3.org/2000/svg" viewBox="0 0 1345.65 1204.07">
  <g fill="#FFFFFF" fill-rule="evenodd">
    <path d="M670.41,7.6l-34.88,60.42-.58,1-206.28,357.29h0s-244.53,423.53-244.53,423.53l-.22.38h443.66s0,0,0,0v-143.98s0-.14,0-.14h-193.95l.95-.59-1.03.57.15-.27,100.9-174.76.92-1.6,11.96-20.72,5.99-10.38h.01s0-.01,0-.01l.04-.07,119.79-207.49.1-.18,51.88,89.85h166.41L673.43,2.38l-3.01,5.22ZM944.5,472.14h-228.23v144.12h142.17l51.86,89.84h-191.04v144.12h443.36s.3,0,.3,0l-218.29-378.08h-.14Z"/>
    <path d="M272.42,1044.18l-17.29,97.6c-65.05,36.08-167.49,23.83-167.88-63.03-2.48-96.93,113.34-154.02,192.98-108.48l-8.65,48.8c-29.61-21.86-77.96-27.28-107.64-3.49-16.51,12.31-25.84,34.41-25.66,55.92-.2,42.54,43.8,50.1,79.48,39.88l5.02-28.44h-38.76l6.97-38.76h81.43Z"/>
    <path d="M354.4,1013.78l-4.18,24.26c12.41-21.03,32.57-31.2,54.1-26.5l-8.37,46.57c-60.29-12.29-58.19,59.01-66.65,99h-48.52l25.1-143.34h48.52Z"/>
    <path d="M473.2,1118.64c34.88,2.66,54.11-64.15,11.44-65.26-34.01-2.25-52.81,63.6-11.44,65.26M497.74,1157.12l3.07-17.01c-43.52,45.71-113.06,10.89-98.72-54.66,5.79-39.22,39.5-75.12,78.08-75.02,14.42-.14,30.06,5.86,36.54,18.13l2.51-14.78h47.97l-25.1,143.34h-44.34Z"/>
    <path d="M660.32,1008.48l-1.11,5.3h28.16l-6.41,37.37h-27.88l-18.68,105.97h-48.52l18.69-105.97h-18.69l6.41-37.37h19.24c3.36-45.62,49.02-69.17,90.64-56.05l-6.69,38.21c-12.24-5.6-34.3-2.37-35.14,12.55"/>
    <polygon points="683.75 1157.12 708.85 1013.78 757.37 1013.78 732.27 1157.12 683.75 1157.12"/>
    <path d="M725.3,960.93c29.64-22.57,58.45,10.66,30.53,36.12-29.77,22.15-58.75-10.29-30.53-36.12"/>
    <path d="M841.31,1005.69l-1.67,9.21h31.23l-5.02,29h-30.95l-20.08,113.22h-36.26l20.08-113.22h-19.24l5.02-29h19.24c2.46-17.64,8.31-35.48,22.45-45.87,13.78-12.15,43.68-17.64,60.65-9.62l-5.3,29.56c-14.75-6.6-37.7-1.9-40.16,16.73"/>
    <path d="M877,1118.64l28.17-159.51h36.25l-26.77,152.82c-3.65,16.45,7.72,18.76,19.52,14.78l-5.58,30.96c-28.45,9.39-59.58-3.58-51.59-39.04"/>
    <path d="M1036.24,1041.94c-17.99-.13-32.34,12.02-38.21,29h64.7c2.02-16.41-8.7-29.66-26.49-29M1041.81,1011.55c49.93-2.69,64.81,45.54,49.92,83.1h-98.16c-2.81,45.76,61.58,39.46,86.45,19.52l-6.14,34.3c-44.35,23.84-118.22,15.5-117.96-46.29-.58-46.7,37.99-91.72,85.89-90.63"/>
    <polygon points="1233.95 1157.12 1193.8 1157.12 1172.6 1109.15 1133.56 1157.12 1093.4 1157.12 1154.48 1084.34 1120.17 1014.9 1160.33 1014.9 1180.97 1060.07 1217.22 1014.9 1257.38 1014.9 1198.54 1084.34 1233.95 1157.12"/>
    <polygon points="719.27 706.09 719.27 850.21 1162.93 850.21 910.3 706.09 719.27 706.09"/>
    <polygon points="428.05 709.08 428.11 709.05 183.92 850.21 627.58 850.21 627.58 850.21 627.58 850.21 627.58 850.17 627.58 706.09 433.55 706.09 433.7 705.81 428.05 709.08"/>
    <polygon points="673.17 2.82 670.41 7.6 635.53 68.02 634.95 69.02 428.67 426.31 428.67 426.31 436.33 430.73 436.33 430.74 553.47 498.36 553.48 498.35 553.49 498.35 673.43 290.6 673.43 2.38 673.17 2.82"/>
    <polygon points="941.64 472.14 716.27 472.14 716.27 616.26 858.44 616.26 910.3 706.09 913.32 707.84 1162.93 850.21 944.64 472.14 941.64 472.14"/>
    <polygon points="670.41 7.6 635.53 68.02 634.95 69.02 428.67 426.31 428.67 426.31 184.14 849.83 196.46 842.77 434.96 429.69 434.97 429.69 641.13 72.59 641.71 71.59 673.43 16.66 673.43 16.66 673.43 2.38 670.41 7.6"/>
    <text x="1240" y="1158" font-family="Arial, Helvetica, sans-serif" font-size="30" fill="#1A1A1A" font-weight="400">®</text>
  </g>
</svg>
