<?xml version="1.0" encoding="UTF-8"?>
<svg xmlns="http://www.w3.org/2000/svg" viewBox="1.00 2.00 301.50 262.00">
  <g fill="#FFFFFF" fill-rule="evenodd">
    <path d="M151.06,7.7l-10.46,18.13-.17.3-61.88,107.19h0S5.18,260.37,5.18,260.37l-.07.11h133.1s0,0,0,0h0v-43.19s0-.04,0-.04h-58.19l.28-.18-.31.17.04-.08,30.27-52.43.28-.48,3.59-6.21,1.8-3.11h0s0,0,0,0v-.02s35.95-62.25,35.95-62.25l.03-.05,15.56,26.96h49.92L151.96,6.13l-.9,1.57ZM233.28,147.06h-68.47v43.24h42.65l15.56,26.95h-57.31v43.24h133.01s.09,0,.09,0l-65.49-113.42h-.04Z"/>
  </g>
</svg>
